<svg xmlns="http://www.w3.org/2000/svg" width="192" height="192" fill="none" viewBox="0 0 192 192">
  <rect width="144" height="144" x="24" y="24" fill="#fff" rx="24"/>
  <path fill="#3186FF" d="M48 24h96c13.255 0 24 10.745 24 24v22H24V48c0-13.255 10.745-24 24-24Z"/>
  <path fill="#60D673" d="M24 70h34v98H48c-13.255 0-24-10.745-24-24V70Z"/>
  <path fill="#FEB10C" d="M134 70h34v74c0 13.255-10.745 24-24 24h-10V70Z"/>
  <path fill="#FC413D" d="M58 70h76v98H58V70Z"/>
  <rect width="88" height="78" x="52" y="78" fill="#fff" rx="10"/>
  <path fill="#3186FF" d="M73.5 132.35h17.75V91.1H75.4l-14.1 10.05 6.95 10.05 5.25-3.7v24.85Zm42.824 1.05c12.35 0 20.45-8.8 20.45-21.7 0-12.85-8.1-21.65-20.45-21.65-12.3 0-20.4 8.8-20.4 21.65 0 12.9 8.1 21.7 20.4 21.7Zm0-12.6c-4 0-6.55-3.45-6.55-9.1 0-5.6 2.55-9.05 6.55-9.05s6.6 3.45 6.6 9.05c0 5.65-2.6 9.1-6.6 9.1Z"/>
  <rect width="16" height="36" x="58" y="8" fill="#202124" rx="8"/>
  <rect width="16" height="36" x="118" y="8" fill="#202124" rx="8"/>
</svg>
