<svg xmlns="http://www.w3.org/2000/svg" width="192" height="192" fill="none" viewBox="0 0 192 192">
  <rect width="192" height="192" rx="44" fill="#5E6AD2"/>
  <path fill="#fff" d="M50.5 126.5c-3.9 0-6.5-4.3-4.5-7.6l73-73c3.4-2 7.6.6 7.6 4.5v16.1l-60 60H50.5Z"/>
  <path fill="#fff" d="M50.5 88.5c-3.9 0-6.5-4.3-4.5-7.6l35-35c3.4-2 7.6.6 7.6 4.5v16.1l-22 22H50.5Z" opacity=".84"/>
  <path fill="#fff" d="M103.5 146c-3.9 0-6.5-4.3-4.5-7.6l39.4-39.4c3.4-2 7.6.6 7.6 4.5v16.1L119.6 146h-16.1Z" opacity=".84"/>
  <path fill="#fff" d="M50.5 146c-3.9 0-6.5-4.3-4.5-7.6L138.4 46c3.4-2 7.6.6 7.6 4.5v16.1L66.6 146H50.5Z"/>
</svg>
