<svg xmlns="http://www.w3.org/2000/svg" width="192" height="192" viewBox="0 0 192 192" fill="none">
  <rect width="192" height="192" rx="42" fill="#fff"/>
  <path fill="#36C5F0" d="M72 24c-10.493 0-19 8.507-19 19v38H43c-10.493 0-19 8.507-19 19s8.507 19 19 19h29c10.493 0 19-8.507 19-19V43c0-10.493-8.507-19-19-19z"/>
  <path fill="#2EB67D" d="M168 72c0-10.493-8.507-19-19-19h-38V43c0-10.493-8.507-19-19-19S73 32.507 73 43v29c0 10.493 8.507 19 19 19h57c10.493 0 19-8.507 19-19z"/>
  <path fill="#ECB22E" d="M120 168c10.493 0 19-8.507 19-19v-38h10c10.493 0 19-8.507 19-19s-8.507-19-19-19h-29c-10.493 0-19 8.507-19 19v57c0 10.493 8.507 19 19 19z"/>
  <path fill="#E01E5A" d="M24 120c0 10.493 8.507 19 19 19h38v10c0 10.493 8.507 19 19 19s19-8.507 19-19v-29c0-10.493-8.507-19-19-19H43c-10.493 0-19 8.507-19 19z"/>
</svg>
