<svg width="158" height="165" viewBox="0 0 158 165" fill="none" xmlns="http://www.w3.org/2000/svg">
<path d="M76.4911 12.9689C85.4772 12.1621 90.747 15.62 98.3296 19.591L113.565 27.5816C118.292 30.0827 123.033 32.5598 127.786 35.0129C131.005 36.6724 134.212 38.3284 137.394 40.0593C140.365 41.6748 142.069 43.861 142.676 47.267C143.169 49.9433 142.561 52.7052 140.991 54.9274C138.957 57.8183 133.904 59.7293 130.681 61.3851L115.286 69.3979L98.5405 78.0555C92.0178 81.4323 88.6431 83.6747 81.3348 84.9808C72.2879 86.8531 58.6359 77.5291 50.7091 73.4465L30.3613 62.9469C26.9074 61.1575 22.8393 59.2646 19.6589 57.218C13.5358 53.1772 14.0772 43.9397 20.4228 40.4164C29.0175 35.6443 37.7786 31.2133 46.4425 26.6151C51.0366 24.159 55.6099 21.665 60.1623 19.1325C67.0815 15.3706 68.6977 14.3082 76.4911 12.9689ZM81.9901 77.8017C86.0501 76.9275 90.2502 74.2294 93.9938 72.3255C100.928 68.8303 107.827 65.2678 114.692 61.6383C121.182 58.2395 127.788 54.988 134.269 51.6241C135.612 50.927 136.596 48.8734 136.047 48.1049C134.686 46.2014 127.104 42.6378 125.175 41.6277L105.029 31.2257L93.6623 25.2751C87.4868 21.9636 83.9059 19.2631 76.5828 20.0014C70.9957 20.5328 56.8108 29.142 51.0971 32.149L31.4033 42.4406C29.2897 43.554 27.0868 44.6186 24.9996 45.7422C23.6633 46.4615 21.8485 47.5056 22.0308 49.2504C22.2508 51.3564 26.4668 52.9059 28.2266 53.8321L41.4403 60.6256C51.9204 66.1137 62.4937 72.2354 73.2743 77.1297C75.2873 78.0436 79.2094 78.2011 81.383 77.9014C81.5861 77.8733 81.7885 77.8401 81.9901 77.8017Z" fill="#FCFCFC"/>
<path d="M96.4951 89.6298C98.8516 90.0767 103.001 92.6833 105.281 93.8814L124.535 104.064C127.306 105.528 130.089 106.969 132.882 108.389C136.034 110.001 141.261 112.205 142.311 115.804C144.316 122.667 135.24 125.773 130.556 128.218L114.637 136.529C107.991 140.087 101.306 143.574 94.5841 146.987C92.0387 148.289 88.9288 150.21 86.3066 151.057C81.2363 152.695 74.9322 152.585 69.9866 150.558C67.8677 149.69 64.4884 147.781 62.3653 146.651C54.949 142.763 47.6824 138.518 40.1877 134.695C33.649 131.346 27.2494 127.795 20.6953 124.47C14.6755 121.417 13.9945 114.626 20.0154 111.13C24.1813 108.711 28.6643 106.638 32.9445 104.384L51.5974 94.6109C54.541 93.0535 58.1762 90.4858 61.2436 89.7211C63.9603 90.3869 66.9969 92.7908 70.1469 93.7675C76.1639 95.6334 83.9158 95.4671 89.695 92.9026C92.0217 91.8701 94.0121 90.3244 96.4951 89.6298Z" fill="#FCFCFC"/>
<path d="M19.7315 81.1C24.5721 80.8982 24.8256 86.7761 21.322 87.917C19.525 87.7465 18.4338 87.7608 17.5643 85.8763C17.175 85.0395 17.1478 84.0793 17.4895 83.2218C17.9664 82.0507 18.6194 81.5675 19.7315 81.1Z" fill="#FCFCFC"/>
<path d="M19.5347 67.4297C19.6987 67.42 19.863 67.4126 20.0273 67.4078C23.5444 67.3086 23.5374 69.6944 23.4381 72.396C22.9089 73.3463 22.5514 73.7337 21.6087 74.2294C21.1965 74.2296 19.7513 74.2041 19.4628 74.0703C16.4427 72.6693 16.7223 68.8893 19.5347 67.4297Z" fill="#FCFCFC"/>
<path d="M136.205 67.5986C140.895 66.8366 141.802 72.4704 138.214 74.3418C133.962 74.9885 132.867 69.8577 136.205 67.5986Z" fill="#FCFCFC"/>
<path d="M136.648 81.1094C138.323 81.044 139.496 81.4631 140.116 83.1392C140.506 84.1778 140.448 85.3314 139.958 86.3263C139.477 87.3222 139.057 87.5217 138.078 87.8712C133.349 88.0844 132.903 82.832 136.648 81.1094Z" fill="#FCFCFC"/>
<path d="M19.5183 94.7607C19.8921 94.7485 21.1089 94.6967 21.4109 94.811C24.5953 96.0164 24.2315 99.8264 21.5032 101.321C19.8494 101.359 18.6972 101.272 17.8263 99.6647C17.3783 98.8364 17.2866 97.8614 17.5725 96.9643C17.951 95.7951 18.4749 95.3002 19.5183 94.7607Z" fill="#FCFCFC"/>
<path d="M136.716 94.7605C139.781 94.8171 140.968 96.6898 139.857 99.7156C139.478 100.748 138.895 100.931 137.885 101.293C137.466 101.281 136.177 101.194 135.887 101C133.25 99.238 133.791 95.7554 136.716 94.7605Z" fill="#FCFCFC"/>
</svg>
