<svg width="658" height="165" viewBox="0 0 658 165" fill="none" xmlns="http://www.w3.org/2000/svg">
<path d="M203.687 126.793V40.1712H216.26V114.942H255.48V126.793H203.687ZM293.905 128.597C287.408 128.597 281.774 127.134 277.002 124.206C272.23 121.279 268.54 117.248 265.933 112.115C263.367 106.942 262.084 100.987 262.084 94.2495C262.084 87.4722 263.407 81.5169 266.054 76.3838C268.701 71.2106 272.41 67.2003 277.182 64.353C281.954 61.4656 287.529 60.022 293.905 60.022C300.402 60.022 306.036 61.4857 310.808 64.4132C315.58 67.3407 319.27 71.371 321.877 76.5041C324.483 81.6372 325.787 87.5524 325.787 94.2495C325.787 101.027 324.463 107.002 321.816 112.175C319.21 117.308 315.52 121.339 310.748 124.266C305.976 127.154 300.361 128.597 293.905 128.597ZM293.905 116.747C300.121 116.747 304.753 114.662 307.801 110.491C310.888 106.28 312.432 100.866 312.432 94.2495C312.432 87.4722 310.868 82.0583 307.74 78.008C304.652 73.9175 300.041 71.8723 293.905 71.8723C289.694 71.8723 286.225 72.8347 283.498 74.7596C280.771 76.6445 278.746 79.2712 277.423 82.6398C276.099 85.9683 275.438 89.8382 275.438 94.2495C275.438 101.067 277.002 106.521 280.13 110.611C283.258 114.702 287.849 116.747 293.905 116.747ZM366.796 128.597C360.139 128.597 354.485 127.114 349.833 124.146C345.181 121.178 341.612 117.108 339.126 111.935C336.679 106.761 335.436 100.886 335.396 94.3096C335.436 87.6125 336.719 81.6974 339.246 76.5643C341.772 71.391 345.382 67.3407 350.074 64.4132C354.766 61.4857 360.4 60.022 366.977 60.022C374.075 60.022 380.13 61.7865 385.143 65.3155C390.196 68.8445 393.525 73.6769 395.129 79.8126L382.617 83.4218C381.374 79.7725 379.328 76.9452 376.481 74.9401C373.674 72.8949 370.446 71.8723 366.796 71.8723C362.666 71.8723 359.277 72.8548 356.63 74.8198C353.984 76.7447 352.019 79.3915 350.735 82.7601C349.452 86.1287 348.79 89.9786 348.75 94.3096C348.79 101.007 350.314 106.421 353.322 110.551C356.37 114.682 360.861 116.747 366.796 116.747C370.847 116.747 374.115 115.825 376.601 113.98C379.128 112.095 381.053 109.408 382.376 105.919L395.129 108.927C393.003 115.263 389.494 120.136 384.602 123.544C379.709 126.913 373.774 128.597 366.796 128.597ZM424.908 128.597C420.096 128.597 416.065 127.715 412.817 125.951C409.569 124.146 407.102 121.78 405.418 118.852C403.774 115.885 402.952 112.637 402.952 109.107C402.952 105.819 403.533 102.932 404.696 100.445C405.859 97.959 407.584 95.8536 409.869 94.1292C412.155 92.3647 414.962 90.941 418.291 89.8583C421.178 89.0161 424.447 88.2742 428.096 87.6326C431.745 86.9909 435.575 86.3894 439.585 85.828C443.636 85.2665 447.646 84.7051 451.616 84.1436L447.044 86.6701C447.125 81.5771 446.042 77.8074 443.796 75.3612C441.591 72.8748 437.781 71.6316 432.367 71.6316C428.958 71.6316 425.83 72.4337 422.983 74.0378C420.136 75.6018 418.151 78.2085 417.028 81.8578L405.298 78.2486C406.902 72.6743 409.95 68.243 414.441 64.9546C418.973 61.6662 424.988 60.022 432.487 60.022C438.302 60.022 443.355 61.0245 447.646 63.0296C451.977 64.9947 455.145 68.1227 457.15 72.4136C458.193 74.5391 458.835 76.7848 459.075 79.1509C459.316 81.5169 459.436 84.0634 459.436 86.7904V126.793H448.308V111.935L450.473 113.86C447.786 118.832 444.358 122.542 440.187 124.988C436.056 127.394 430.963 128.597 424.908 128.597ZM427.134 118.311C430.703 118.311 433.771 117.689 436.337 116.446C438.904 115.163 440.969 113.539 442.533 111.574C444.097 109.609 445.12 107.564 445.601 105.438C446.283 103.513 446.663 101.348 446.744 98.9415C446.864 96.5353 446.924 94.6104 446.924 93.1667L451.015 94.6706C447.044 95.2721 443.435 95.8135 440.187 96.2947C436.939 96.776 433.991 97.2572 431.344 97.7384C428.738 98.1795 426.412 98.7209 424.366 99.3626C422.642 99.9641 421.098 100.686 419.735 101.528C418.411 102.37 417.349 103.393 416.546 104.596C415.785 105.799 415.404 107.263 415.404 108.987C415.404 110.671 415.825 112.235 416.667 113.679C417.509 115.083 418.792 116.206 420.517 117.048C422.241 117.89 424.447 118.311 427.134 118.311ZM476.259 126.793V38.3666H488.832V126.793H476.259ZM508.099 51.1793V38.9681H520.671V51.1793H508.099ZM508.099 126.793V61.8266H520.671V126.793H508.099ZM575.91 126.793C571.82 127.595 567.809 127.936 563.879 127.815C559.949 127.695 556.44 126.933 553.352 125.529C550.264 124.126 547.938 121.92 546.374 118.913C544.971 116.226 544.209 113.499 544.089 110.732C544.008 107.924 543.968 104.756 543.968 101.227V43.7804H556.601V100.626C556.601 103.232 556.621 105.498 556.661 107.423C556.741 109.348 557.162 110.972 557.924 112.296C559.368 114.782 561.654 116.206 564.782 116.567C567.95 116.887 571.659 116.747 575.91 116.145V126.793ZM531.516 71.9324V61.8266H575.91V71.9324H531.516ZM596.627 155.667L609.199 121.439L609.38 131.545L581.047 61.8266H594.161L615.335 115.664H611.485L631.697 61.8266H644.45L608.598 155.667H596.627Z" fill="#0A0B0A"/>
<path d="M76.4911 12.9689C85.4772 12.1621 90.7471 15.62 98.3297 19.591L113.565 27.5816C118.292 30.0827 123.033 32.5598 127.786 35.0129C131.005 36.6724 134.212 38.3284 137.394 40.0593C140.365 41.6748 142.069 43.861 142.676 47.267C143.169 49.9433 142.561 52.7052 140.991 54.9274C138.957 57.8183 133.904 59.7293 130.681 61.3851L115.286 69.3979L98.5406 78.0555C92.0178 81.4323 88.6431 83.6747 81.3348 84.9808C72.288 86.8531 58.6359 77.5291 50.7091 73.4465L30.3614 62.9469C26.9075 61.1575 22.8393 59.2646 19.659 57.218C13.5358 53.1772 14.0773 43.9397 20.4229 40.4164C29.0175 35.6443 37.7787 31.2133 46.4426 26.6151C51.0366 24.159 55.61 21.665 60.1624 19.1325C67.0816 15.3706 68.6978 14.3082 76.4911 12.9689ZM81.9901 77.8017C86.0502 76.9275 90.2503 74.2294 93.9938 72.3255C100.928 68.8303 107.827 65.2678 114.692 61.6383C121.182 58.2395 127.788 54.988 134.269 51.6241C135.612 50.927 136.596 48.8734 136.047 48.1049C134.686 46.2014 127.104 42.6378 125.175 41.6277L105.029 31.2257L93.6624 25.2751C87.4868 21.9636 83.906 19.2631 76.5828 20.0014C70.9958 20.5328 56.8109 29.142 51.0972 32.149L31.4034 42.4406C29.2898 43.554 27.0869 44.6186 24.9997 45.7422C23.6634 46.4615 21.8486 47.5056 22.0308 49.2504C22.2508 51.3564 26.4669 52.9059 28.2267 53.8321L41.4404 60.6256C51.9205 66.1137 62.4938 72.2354 73.2744 77.1297C75.2874 78.0436 79.2094 78.2011 81.383 77.9014C81.5862 77.8733 81.7885 77.8401 81.9901 77.8017Z" fill="#0A0B0A"/>
<path d="M96.4953 89.6298C98.8517 90.0767 103.001 92.6833 105.281 93.8814L124.535 104.064C127.306 105.528 130.089 106.969 132.882 108.389C136.034 110.001 141.261 112.205 142.311 115.804C144.316 122.667 135.24 125.773 130.557 128.218L114.637 136.529C107.991 140.087 101.306 143.574 94.5842 146.987C92.0389 148.289 88.929 150.21 86.3068 151.057C81.2364 152.695 74.9324 152.585 69.9868 150.558C67.8678 149.69 64.4885 147.781 62.3654 146.651C54.9491 142.763 47.6825 138.518 40.1878 134.695C33.6491 131.346 27.2496 127.795 20.6955 124.47C14.6756 121.417 13.9946 114.626 20.0155 111.13C24.1814 108.711 28.6644 106.638 32.9446 104.384L51.5975 94.6109C54.5411 93.0535 58.1763 90.4858 61.2437 89.7211C63.9604 90.3869 66.997 92.7908 70.147 93.7675C76.164 95.6334 83.916 95.4671 89.6951 92.9026C92.0218 91.8701 94.0122 90.3244 96.4953 89.6298Z" fill="#0A0B0A"/>
<path d="M19.7315 81.1C24.5721 80.8982 24.8256 86.776 21.322 87.917C19.525 87.7465 18.4338 87.7607 17.5643 85.8762C17.175 85.0394 17.1478 84.0792 17.4895 83.2218C17.9664 82.0507 18.6194 81.5675 19.7315 81.1Z" fill="#0A0B0A"/>
<path d="M19.5348 67.4296C19.6989 67.42 19.8631 67.4126 20.0275 67.4078C23.5446 67.3085 23.5375 69.6944 23.4383 72.3959C22.909 73.3463 22.5515 73.7337 21.6088 74.2294C21.1967 74.2296 19.7514 74.2041 19.4629 74.0703C16.4428 72.6693 16.7224 68.8893 19.5348 67.4296Z" fill="#0A0B0A"/>
<path d="M136.205 67.5986C140.895 66.8366 141.802 72.4704 138.214 74.3418C133.962 74.9885 132.867 69.8577 136.205 67.5986Z" fill="#0A0B0A"/>
<path d="M136.648 81.1094C138.323 81.044 139.496 81.4631 140.116 83.1392C140.506 84.1778 140.448 85.3314 139.958 86.3263C139.477 87.3222 139.057 87.5217 138.078 87.8712C133.349 88.0844 132.903 82.832 136.648 81.1094Z" fill="#0A0B0A"/>
<path d="M19.5184 94.7607C19.8922 94.7485 21.109 94.6967 21.4111 94.811C24.5954 96.0164 24.2316 99.8264 21.5033 101.321C19.8495 101.359 18.6974 101.272 17.8264 99.6647C17.3784 98.8364 17.2867 97.8614 17.5726 96.9643C17.9511 95.7951 18.4751 95.3002 19.5184 94.7607Z" fill="#0A0B0A"/>
<path d="M136.716 94.7605C139.781 94.8171 140.968 96.6898 139.857 99.7156C139.478 100.748 138.895 100.931 137.885 101.293C137.466 101.281 136.177 101.194 135.887 101C133.25 99.238 133.791 95.7554 136.716 94.7605Z" fill="#0A0B0A"/>
</svg>
